@startuml
skinparam linetype ortho
class SuffixRule
SuffixRule --> Node
SuffixRule --> InlineRuleResult
SuffixRule --> RuleResult
class JavaRoots
JavaRoots --> Imports
JavaRoots --> DivideRule
JavaRoots --> OrRule
JavaRoots --> Rule
JavaRoots --> StringRule
JavaRoots --> List
class InfixRule
InfixRule --> Node
InfixRule --> InlineRuleResult
InfixRule --> RuleResult
class PathSource
PathSource --> SafeFiles
PathSource --> Result
PathSource --> IOException
PathSource --> Path
class HeadedIter
HeadedIter --> Iter
HeadedIter --> Ok
HeadedIter --> Result
HeadedIter --> Optional
HeadedIter --> BiFunction
HeadedIter --> Function
class OrRule
OrRule --> Node
OrRule --> InlineRuleResult
OrRule --> RuleResult
OrRule --> List
OrRule --> Optional
OrRule --> Function
class DivideRule
DivideRule --> MapNode
DivideRule --> Node
DivideRule --> DivideState
DivideRule --> MutableDivideState
DivideRule --> InlineRuleResult
DivideRule --> RuleResult
DivideRule --> ArrayList
DivideRule --> List
DivideRule --> Optional
DivideRule --> Collectors
class RangeHead
RangeHead --> Optional
class Rule
Rule --> Node
Rule --> RuleResult
class SafeFiles
SafeFiles --> Err
SafeFiles --> Ok
SafeFiles --> Result
SafeFiles --> IOException
SafeFiles --> Files
SafeFiles --> Path
SafeFiles --> Optional
SafeFiles --> Set
SafeFiles --> Collectors
SafeFiles --> Stream
class Head
Head --> Optional
class RuleResult
RuleResult --> Tuple2
RuleResult --> Node
RuleResult --> List
RuleResult --> Optional
RuleResult --> Function
RuleResult --> Supplier
class Result
Result --> Tuple2
Result --> Function
Result --> Supplier
class PlantUMLRoots
PlantUMLRoots --> DivideRule
PlantUMLRoots --> InfixRule
PlantUMLRoots --> OrRule
PlantUMLRoots --> PrefixRule
PlantUMLRoots --> Rule
PlantUMLRoots --> StringRule
PlantUMLRoots --> SuffixRule
PlantUMLRoots --> TypeRule
PlantUMLRoots --> List
class Err
Err --> Tuple2
Err --> Function
Err --> Supplier
class PrefixRule
PrefixRule --> Node
PrefixRule --> InlineRuleResult
PrefixRule --> RuleResult
class StripRule
StripRule --> Node
StripRule --> RuleResult
class StringRule
StringRule --> MapNode
StringRule --> Node
StringRule --> InlineRuleResult
StringRule --> RuleResult
class Iterators
Iterators --> RangeHead
Iterators --> HeadedIter
Iterators --> ArrayList
Iterators --> List
Iterators --> Set
class Ok
Ok --> Tuple2
Ok --> Function
Ok --> Supplier
class Tuple2
class MapNode
MapNode --> HashMap
MapNode --> List
MapNode --> Map
MapNode --> Optional
class Iter
Iter --> Result
Iter --> BiFunction
Iter --> Function
class PathSources
PathSources --> SafeFiles
PathSources --> Result
PathSources --> IOException
PathSources --> Files
PathSources --> Path
PathSources --> Set
PathSources --> Collectors
class State
State --> Node
State --> List
class Source
Source --> Result
Source --> IOException
class Compiler
Compiler --> Iterators
Compiler --> MapNode
Compiler --> Node
Compiler --> Source
Compiler --> ArrayList
Compiler --> Collection
Compiler --> HashMap
Compiler --> List
Compiler --> Map
Compiler --> Optional
class Sources
Sources --> Result
Sources --> IOException
Sources --> Set
class Node
Node --> List
Node --> Map
Node --> Optional
class Main
Main --> Application
Main --> PathSources
Main --> Sources
Main --> IOException
Main --> Paths
class Imports
Imports --> InfixRule
Imports --> PrefixRule
Imports --> Rule
Imports --> StringRule
Imports --> StripRule
Imports --> SuffixRule
Imports --> TypeRule
class Application
Application --> SafeFiles
Application --> Tuple2
Application --> Iterators
Application --> Result
Application --> JavaRoots
Application --> PlantUMLRoots
Application --> MapNode
Application --> Node
Application --> Source
Application --> Sources
Application --> IOException
Application --> Path
Application --> Paths
Application --> HashMap
Application --> Map
Application --> Optional
Application --> Set
class TypeRule
TypeRule --> Node
TypeRule --> InlineRuleResult
TypeRule --> RuleResult
class DivideState
DivideState --> Stream
class MutableDivideState
MutableDivideState --> ArrayList
MutableDivideState --> List
MutableDivideState --> Stream
class InlineRuleResult
InlineRuleResult --> Tuple2
InlineRuleResult --> Optional
InlineRuleResult --> Function
InlineRuleResult --> Supplier
@enduml
